<?xml version="1.0" encoding="us-ascii" standalone="no"?><svg xmlns="http://www.w3.org/2000/svg" xmlns:xlink="http://www.w3.org/1999/xlink" contentStyleType="text/css" height="670px" preserveAspectRatio="none" style="width:664px;height:670px;background:#FFFFFF;" version="1.1" viewBox="0 0 664 670" width="664px" zoomAndPan="magnify"><defs/><g><text fill="#000000" font-family="sans-serif" font-size="14" font-weight="bold" lengthAdjust="spacing" textLength="279" x="191" y="32.9951">KRaftAuthorizer Workflow</text><ellipse cx="362.5" cy="57.2969" fill="#222222" rx="10" ry="10" style="stroke:#222222;stroke-width:1.0;"/><rect fill="#F1F1F1" height="33.9688" rx="12.5" ry="12.5" style="stroke:#181818;stroke-width:0.5;" width="334" x="195.5" y="87.2969"/><text fill="#000000" font-family="sans-serif" font-size="12" lengthAdjust="spacing" textLength="314" x="205.5" y="108.4355">Check if request principal is an OAuthKafkaPrincipal?</text><polygon fill="#F1F1F1" points="350.5,141.2656,374.5,141.2656,386.5,153.2656,374.5,165.2656,350.5,165.2656,338.5,153.2656,350.5,141.2656" style="stroke:#181818;stroke-width:0.5;"/><text fill="#000000" font-family="sans-serif" font-size="11" lengthAdjust="spacing" textLength="21" x="352" y="157.0737">Yes</text><text fill="#000000" font-family="sans-serif" font-size="11" lengthAdjust="spacing" textLength="21" x="317.5" y="150.6714">Yes</text><text fill="#000000" font-family="sans-serif" font-size="11" lengthAdjust="spacing" textLength="15" x="386.5" y="150.6714">No</text><rect fill="#F1F1F1" height="33.9688" rx="12.5" ry="12.5" style="stroke:#181818;stroke-width:0.5;" width="304" x="45" y="175.2656"/><text fill="#000000" font-family="sans-serif" font-size="12" lengthAdjust="spacing" textLength="284" x="55" y="196.4043">Extract access claims from OAuthKafkaPrincipal</text><rect fill="#F1F1F1" height="33.9688" rx="12.5" ry="12.5" style="stroke:#181818;stroke-width:0.5;" width="372" x="11" y="229.2344"/><text fill="#000000" font-family="sans-serif" font-size="12" lengthAdjust="spacing" textLength="352" x="21" y="250.373">Extract topic accesses based on access claims and prefix</text><rect fill="#F1F1F1" height="33.9688" rx="12.5" ry="12.5" style="stroke:#181818;stroke-width:0.5;" width="274" x="60" y="327.2031"/><text fill="#000000" font-family="sans-serif" font-size="12" lengthAdjust="spacing" textLength="254" x="70" y="348.3418">Iterate over the list of actions to authorize</text><rect fill="#F1F1F1" height="33.9688" rx="12.5" ry="12.5" style="stroke:#181818;stroke-width:0.5;" width="240" x="77" y="381.1719"/><text fill="#000000" font-family="sans-serif" font-size="12" lengthAdjust="spacing" textLength="220" x="87" y="402.3105">Check if JWT claims match the action</text><polygon fill="#F1F1F1" points="173,445.125,221,445.125,233,457.125,221,469.125,173,469.125,161,457.125,173,445.125" style="stroke:#181818;stroke-width:0.5;"/><text fill="#000000" font-family="sans-serif" font-size="11" lengthAdjust="spacing" textLength="48" x="173" y="460.9331">Matched</text><text fill="#000000" font-family="sans-serif" font-size="11" lengthAdjust="spacing" textLength="48" x="113" y="454.5308">Matched</text><text fill="#000000" font-family="sans-serif" font-size="11" lengthAdjust="spacing" textLength="71" x="233" y="454.5308">Not Matched</text><rect fill="#F1F1F1" height="33.9688" rx="12.5" ry="12.5" style="stroke:#181818;stroke-width:0.5;" width="99" x="88.25" y="479.125"/><text fill="#000000" font-family="sans-serif" font-size="12" lengthAdjust="spacing" textLength="79" x="98.25" y="500.2637">Allow access</text><rect fill="#F1F1F1" height="33.9688" rx="12.5" ry="12.5" style="stroke:#181818;stroke-width:0.5;" width="98" x="207.25" y="479.125"/><text fill="#000000" font-family="sans-serif" font-size="12" lengthAdjust="spacing" textLength="78" x="217.25" y="500.2637">Deny access</text><polygon fill="#F1F1F1" points="197,519.0938,209,531.0938,197,543.0938,185,531.0938,197,519.0938" style="stroke:#181818;stroke-width:0.5;"/><polygon fill="#F1F1F1" points="197,283.2031,209,295.2031,197,307.2031,185,295.2031,197,283.2031" style="stroke:#181818;stroke-width:0.5;"/><polygon fill="#F1F1F1" points="121.5,563.0938,272.5,563.0938,284.5,575.0938,272.5,587.0938,121.5,587.0938,109.5,575.0938,121.5,563.0938" style="stroke:#181818;stroke-width:0.5;"/><text fill="#000000" font-family="sans-serif" font-size="11" lengthAdjust="spacing" textLength="151" x="121.5" y="578.9019">More actions to authorize?</text><rect fill="#F1F1F1" height="33.9688" rx="12.5" ry="12.5" style="stroke:#181818;stroke-width:0.5;" width="250" x="403" y="175.2656"/><text fill="#000000" font-family="sans-serif" font-size="12" lengthAdjust="spacing" textLength="230" x="413" y="196.4043">Handle super users and return results</text><polygon fill="#F1F1F1" points="362.5,593.0938,374.5,605.0938,362.5,617.0938,350.5,605.0938,362.5,593.0938" style="stroke:#181818;stroke-width:0.5;"/><ellipse cx="362.5" cy="648.0938" fill="none" rx="11" ry="11" style="stroke:#222222;stroke-width:1.0;"/><ellipse cx="362.5" cy="648.0938" fill="#222222" rx="6" ry="6" style="stroke:#222222;stroke-width:1.0;"/><line style="stroke:#181818;stroke-width:1.0;" x1="362.5" x2="362.5" y1="67.2969" y2="87.2969"/><polygon fill="#181818" points="358.5,77.2969,362.5,87.2969,366.5,77.2969,362.5,81.2969" style="stroke:#181818;stroke-width:1.0;"/><line style="stroke:#181818;stroke-width:1.0;" x1="197" x2="197" y1="209.2344" y2="229.2344"/><polygon fill="#181818" points="193,219.2344,197,229.2344,201,219.2344,197,223.2344" style="stroke:#181818;stroke-width:1.0;"/><line style="stroke:#181818;stroke-width:1.0;" x1="197" x2="197" y1="361.1719" y2="381.1719"/><polygon fill="#181818" points="193,371.1719,197,381.1719,201,371.1719,197,375.1719" style="stroke:#181818;stroke-width:1.0;"/><line style="stroke:#181818;stroke-width:1.0;" x1="161" x2="137.75" y1="457.125" y2="457.125"/><line style="stroke:#181818;stroke-width:1.0;" x1="137.75" x2="137.75" y1="457.125" y2="479.125"/><polygon fill="#181818" points="133.75,469.125,137.75,479.125,141.75,469.125,137.75,473.125" style="stroke:#181818;stroke-width:1.0;"/><line style="stroke:#181818;stroke-width:1.0;" x1="233" x2="256.25" y1="457.125" y2="457.125"/><line style="stroke:#181818;stroke-width:1.0;" x1="256.25" x2="256.25" y1="457.125" y2="479.125"/><polygon fill="#181818" points="252.25,469.125,256.25,479.125,260.25,469.125,256.25,473.125" style="stroke:#181818;stroke-width:1.0;"/><line style="stroke:#181818;stroke-width:1.0;" x1="137.75" x2="137.75" y1="513.0938" y2="531.0938"/><line style="stroke:#181818;stroke-width:1.0;" x1="137.75" x2="185" y1="531.0938" y2="531.0938"/><polygon fill="#181818" points="175,527.0938,185,531.0938,175,535.0938,179,531.0938" style="stroke:#181818;stroke-width:1.0;"/><line style="stroke:#181818;stroke-width:1.0;" x1="256.25" x2="256.25" y1="513.0938" y2="531.0938"/><line style="stroke:#181818;stroke-width:1.0;" x1="256.25" x2="209" y1="531.0938" y2="531.0938"/><polygon fill="#181818" points="219,527.0938,209,531.0938,219,535.0938,215,531.0938" style="stroke:#181818;stroke-width:1.0;"/><line style="stroke:#181818;stroke-width:1.0;" x1="197" x2="197" y1="415.1406" y2="445.125"/><polygon fill="#181818" points="193,435.125,197,445.125,201,435.125,197,439.125" style="stroke:#181818;stroke-width:1.0;"/><line style="stroke:#181818;stroke-width:1.0;" x1="197" x2="197" y1="307.2031" y2="327.2031"/><polygon fill="#181818" points="193,317.2031,197,327.2031,201,317.2031,197,321.2031" style="stroke:#181818;stroke-width:1.0;"/><line style="stroke:#181818;stroke-width:1.0;" x1="284.5" x2="346" y1="575.0938" y2="575.0938"/><polygon fill="#181818" points="342,435.1406,346,425.1406,350,435.1406,346,431.1406" style="stroke:#181818;stroke-width:1.0;"/><line style="stroke:#181818;stroke-width:1.0;" x1="346" x2="346" y1="295.2031" y2="575.0938"/><line style="stroke:#181818;stroke-width:1.0;" x1="346" x2="209" y1="295.2031" y2="295.2031"/><polygon fill="#181818" points="219,291.2031,209,295.2031,219,299.2031,215,295.2031" style="stroke:#181818;stroke-width:1.0;"/><line style="stroke:#181818;stroke-width:1.0;" x1="197" x2="197" y1="543.0938" y2="563.0938"/><polygon fill="#181818" points="193,553.0938,197,563.0938,201,553.0938,197,557.0938" style="stroke:#181818;stroke-width:1.0;"/><line style="stroke:#181818;stroke-width:1.0;" x1="197" x2="197" y1="263.2031" y2="283.2031"/><polygon fill="#181818" points="193,273.2031,197,283.2031,201,273.2031,197,277.2031" style="stroke:#181818;stroke-width:1.0;"/><line style="stroke:#181818;stroke-width:1.0;" x1="338.5" x2="197" y1="153.2656" y2="153.2656"/><line style="stroke:#181818;stroke-width:1.0;" x1="197" x2="197" y1="153.2656" y2="175.2656"/><polygon fill="#181818" points="193,165.2656,197,175.2656,201,165.2656,197,169.2656" style="stroke:#181818;stroke-width:1.0;"/><line style="stroke:#181818;stroke-width:1.0;" x1="386.5" x2="528" y1="153.2656" y2="153.2656"/><line style="stroke:#181818;stroke-width:1.0;" x1="528" x2="528" y1="153.2656" y2="175.2656"/><polygon fill="#181818" points="524,165.2656,528,175.2656,532,165.2656,528,169.2656" style="stroke:#181818;stroke-width:1.0;"/><line style="stroke:#181818;stroke-width:1.0;" x1="197" x2="197" y1="587.0938" y2="605.0938"/><line style="stroke:#181818;stroke-width:1.0;" x1="197" x2="350.5" y1="605.0938" y2="605.0938"/><polygon fill="#181818" points="340.5,601.0938,350.5,605.0938,340.5,609.0938,344.5,605.0938" style="stroke:#181818;stroke-width:1.0;"/><line style="stroke:#181818;stroke-width:1.0;" x1="528" x2="528" y1="209.2344" y2="605.0938"/><line style="stroke:#181818;stroke-width:1.0;" x1="528" x2="374.5" y1="605.0938" y2="605.0938"/><polygon fill="#181818" points="384.5,601.0938,374.5,605.0938,384.5,609.0938,380.5,605.0938" style="stroke:#181818;stroke-width:1.0;"/><line style="stroke:#181818;stroke-width:1.0;" x1="362.5" x2="362.5" y1="121.2656" y2="141.2656"/><polygon fill="#181818" points="358.5,131.2656,362.5,141.2656,366.5,131.2656,362.5,135.2656" style="stroke:#181818;stroke-width:1.0;"/><line style="stroke:#181818;stroke-width:1.0;" x1="362.5" x2="362.5" y1="617.0938" y2="637.0938"/><polygon fill="#181818" points="358.5,627.0938,362.5,637.0938,366.5,627.0938,362.5,631.0938" style="stroke:#181818;stroke-width:1.0;"/><!--SRC=[RP7FJiCm3CRlVGeVjrTO3zC4IFpHW0FInD6aZXejJOhjii7JupRh1DDEIMJ_Fllxea4ZmKrBfDW-eT_ZPj0sS_WXXbtclO_vK5MYo5fLAsjqUmWUc3u74eMUGtAXnmX101EyZFYaypfNrdLbmEATP0dQKYhN2c1rTrH6fu3EaGYuYA4Jy9oxQphrNqHp7zm9984F56eWfmifJ8rjI3uSHvYf9rIxcCw34gCIv2_pQLj13EOcUnFGa9FO0C0vYRemP_EFkxTvGeVgsacWWALrzBiTAzJCdkVdL3UnJRHWJ-iMYA8GB9wpmcNlBQNl_wsf2Vxi20vji4zSR3FJrVtNoxgQrQVWxoqO8sJepVqWn2Kg9XqusI53L1jLnjZdv_uN]--></g></svg>
