<?xml version="1.0" encoding="us-ascii" standalone="no"?><svg xmlns="http://www.w3.org/2000/svg" xmlns:xlink="http://www.w3.org/1999/xlink" contentStyleType="text/css" height="670px" preserveAspectRatio="none" style="width:685px;height:670px;background:#FFFFFF;" version="1.1" viewBox="0 0 685 670" width="685px" zoomAndPan="magnify"><defs/><g><text fill="#000000" font-family="sans-serif" font-size="14" font-weight="bold" lengthAdjust="spacing" textLength="206" x="238" y="32.9951">KRaftAuthorizer Workflow</text><ellipse cx="372.75" cy="57.2969" fill="#222222" rx="10" ry="10" style="stroke:#222222;stroke-width:1.0;"/><rect fill="#F1F1F1" height="33.9688" rx="12.5" ry="12.5" style="stroke:#181818;stroke-width:0.5;" width="348" x="198.75" y="87.2969"/><text fill="#000000" font-family="sans-serif" font-size="12" lengthAdjust="spacing" textLength="328" x="208.75" y="108.4355">Check if request principal is an OAuthKafkaPrincipal?</text><polygon fill="#F1F1F1" points="360.75,141.2656,384.75,141.2656,396.75,153.2656,384.75,165.2656,360.75,165.2656,348.75,153.2656,360.75,141.2656" style="stroke:#181818;stroke-width:0.5;"/><text fill="#000000" font-family="sans-serif" font-size="11" lengthAdjust="spacing" textLength="21" x="362.25" y="157.0737">Yes</text><text fill="#000000" font-family="sans-serif" font-size="11" lengthAdjust="spacing" textLength="21" x="327.75" y="150.6714">Yes</text><text fill="#000000" font-family="sans-serif" font-size="11" lengthAdjust="spacing" textLength="15" x="396.75" y="150.6714">No</text><rect fill="#F1F1F1" height="33.9688" rx="12.5" ry="12.5" style="stroke:#181818;stroke-width:0.5;" width="316" x="44" y="175.2656"/><text fill="#000000" font-family="sans-serif" font-size="12" lengthAdjust="spacing" textLength="296" x="54" y="196.4043">Extract access claims from OAuthKafkaPrincipal</text><rect fill="#F1F1F1" height="33.9688" rx="12.5" ry="12.5" style="stroke:#181818;stroke-width:0.5;" width="382" x="11" y="229.2344"/><text fill="#000000" font-family="sans-serif" font-size="12" lengthAdjust="spacing" textLength="362" x="21" y="250.373">Extract topic accesses based on access claims and prefix</text><rect fill="#F1F1F1" height="33.9688" rx="12.5" ry="12.5" style="stroke:#181818;stroke-width:0.5;" width="285" x="59.5" y="327.2031"/><text fill="#000000" font-family="sans-serif" font-size="12" lengthAdjust="spacing" textLength="265" x="69.5" y="348.3418">Iterate over the list of actions to authorize</text><rect fill="#F1F1F1" height="33.9688" rx="12.5" ry="12.5" style="stroke:#181818;stroke-width:0.5;" width="248" x="78" y="381.1719"/><text fill="#000000" font-family="sans-serif" font-size="12" lengthAdjust="spacing" textLength="228" x="88" y="402.3105">Check if JWT claims match the action</text><polygon fill="#F1F1F1" points="178.5,445.125,225.5,445.125,237.5,457.125,225.5,469.125,178.5,469.125,166.5,457.125,178.5,445.125" style="stroke:#181818;stroke-width:0.5;"/><text fill="#000000" font-family="sans-serif" font-size="11" lengthAdjust="spacing" textLength="47" x="178.5" y="460.9331">Matched</text><text fill="#000000" font-family="sans-serif" font-size="11" lengthAdjust="spacing" textLength="47" x="119.5" y="454.5308">Matched</text><text fill="#000000" font-family="sans-serif" font-size="11" lengthAdjust="spacing" textLength="70" x="237.5" y="454.5308">Not Matched</text><rect fill="#F1F1F1" height="33.9688" rx="12.5" ry="12.5" style="stroke:#181818;stroke-width:0.5;" width="99" x="93" y="479.125"/><text fill="#000000" font-family="sans-serif" font-size="12" lengthAdjust="spacing" textLength="79" x="103" y="500.2637">Allow access</text><rect fill="#F1F1F1" height="33.9688" rx="12.5" ry="12.5" style="stroke:#181818;stroke-width:0.5;" width="99" x="212" y="479.125"/><text fill="#000000" font-family="sans-serif" font-size="12" lengthAdjust="spacing" textLength="79" x="222" y="500.2637">Deny access</text><polygon fill="#F1F1F1" points="202,519.0938,214,531.0938,202,543.0938,190,531.0938,202,519.0938" style="stroke:#181818;stroke-width:0.5;"/><polygon fill="#F1F1F1" points="202,283.2031,214,295.2031,202,307.2031,190,295.2031,202,283.2031" style="stroke:#181818;stroke-width:0.5;"/><polygon fill="#F1F1F1" points="127,563.0938,277,563.0938,289,575.0938,277,587.0938,127,587.0938,115,575.0938,127,563.0938" style="stroke:#181818;stroke-width:0.5;"/><text fill="#000000" font-family="sans-serif" font-size="11" lengthAdjust="spacing" textLength="150" x="127" y="578.9019">More actions to authorize?</text><rect fill="#F1F1F1" height="33.9688" rx="12.5" ry="12.5" style="stroke:#181818;stroke-width:0.5;" width="261" x="413" y="175.2656"/><text fill="#000000" font-family="sans-serif" font-size="12" lengthAdjust="spacing" textLength="241" x="423" y="196.4043">Handle super users and return results</text><polygon fill="#F1F1F1" points="372.75,593.0938,384.75,605.0938,372.75,617.0938,360.75,605.0938,372.75,593.0938" style="stroke:#181818;stroke-width:0.5;"/><ellipse cx="372.75" cy="648.0938" fill="none" rx="11" ry="11" style="stroke:#222222;stroke-width:1.0;"/><ellipse cx="372.75" cy="648.0938" fill="#222222" rx="6" ry="6" style="stroke:#222222;stroke-width:1.0;"/><line style="stroke:#181818;stroke-width:1.0;" x1="372.75" x2="372.75" y1="67.2969" y2="87.2969"/><polygon fill="#181818" points="368.75,77.2969,372.75,87.2969,376.75,77.2969,372.75,81.2969" style="stroke:#181818;stroke-width:1.0;"/><line style="stroke:#181818;stroke-width:1.0;" x1="202" x2="202" y1="209.2344" y2="229.2344"/><polygon fill="#181818" points="198,219.2344,202,229.2344,206,219.2344,202,223.2344" style="stroke:#181818;stroke-width:1.0;"/><line style="stroke:#181818;stroke-width:1.0;" x1="202" x2="202" y1="361.1719" y2="381.1719"/><polygon fill="#181818" points="198,371.1719,202,381.1719,206,371.1719,202,375.1719" style="stroke:#181818;stroke-width:1.0;"/><line style="stroke:#181818;stroke-width:1.0;" x1="166.5" x2="142.5" y1="457.125" y2="457.125"/><line style="stroke:#181818;stroke-width:1.0;" x1="142.5" x2="142.5" y1="457.125" y2="479.125"/><polygon fill="#181818" points="138.5,469.125,142.5,479.125,146.5,469.125,142.5,473.125" style="stroke:#181818;stroke-width:1.0;"/><line style="stroke:#181818;stroke-width:1.0;" x1="237.5" x2="261.5" y1="457.125" y2="457.125"/><line style="stroke:#181818;stroke-width:1.0;" x1="261.5" x2="261.5" y1="457.125" y2="479.125"/><polygon fill="#181818" points="257.5,469.125,261.5,479.125,265.5,469.125,261.5,473.125" style="stroke:#181818;stroke-width:1.0;"/><line style="stroke:#181818;stroke-width:1.0;" x1="142.5" x2="142.5" y1="513.0938" y2="531.0938"/><line style="stroke:#181818;stroke-width:1.0;" x1="142.5" x2="190" y1="531.0938" y2="531.0938"/><polygon fill="#181818" points="180,527.0938,190,531.0938,180,535.0938,184,531.0938" style="stroke:#181818;stroke-width:1.0;"/><line style="stroke:#181818;stroke-width:1.0;" x1="261.5" x2="261.5" y1="513.0938" y2="531.0938"/><line style="stroke:#181818;stroke-width:1.0;" x1="261.5" x2="214" y1="531.0938" y2="531.0938"/><polygon fill="#181818" points="224,527.0938,214,531.0938,224,535.0938,220,531.0938" style="stroke:#181818;stroke-width:1.0;"/><line style="stroke:#181818;stroke-width:1.0;" x1="202" x2="202" y1="415.1406" y2="445.125"/><polygon fill="#181818" points="198,435.125,202,445.125,206,435.125,202,439.125" style="stroke:#181818;stroke-width:1.0;"/><line style="stroke:#181818;stroke-width:1.0;" x1="202" x2="202" y1="307.2031" y2="327.2031"/><polygon fill="#181818" points="198,317.2031,202,327.2031,206,317.2031,202,321.2031" style="stroke:#181818;stroke-width:1.0;"/><line style="stroke:#181818;stroke-width:1.0;" x1="289" x2="356.5" y1="575.0938" y2="575.0938"/><polygon fill="#181818" points="352.5,435.1406,356.5,425.1406,360.5,435.1406,356.5,431.1406" style="stroke:#181818;stroke-width:1.0;"/><line style="stroke:#181818;stroke-width:1.0;" x1="356.5" x2="356.5" y1="295.2031" y2="575.0938"/><line style="stroke:#181818;stroke-width:1.0;" x1="356.5" x2="214" y1="295.2031" y2="295.2031"/><polygon fill="#181818" points="224,291.2031,214,295.2031,224,299.2031,220,295.2031" style="stroke:#181818;stroke-width:1.0;"/><line style="stroke:#181818;stroke-width:1.0;" x1="202" x2="202" y1="543.0938" y2="563.0938"/><polygon fill="#181818" points="198,553.0938,202,563.0938,206,553.0938,202,557.0938" style="stroke:#181818;stroke-width:1.0;"/><line style="stroke:#181818;stroke-width:1.0;" x1="202" x2="202" y1="263.2031" y2="283.2031"/><polygon fill="#181818" points="198,273.2031,202,283.2031,206,273.2031,202,277.2031" style="stroke:#181818;stroke-width:1.0;"/><line style="stroke:#181818;stroke-width:1.0;" x1="348.75" x2="202" y1="153.2656" y2="153.2656"/><line style="stroke:#181818;stroke-width:1.0;" x1="202" x2="202" y1="153.2656" y2="175.2656"/><polygon fill="#181818" points="198,165.2656,202,175.2656,206,165.2656,202,169.2656" style="stroke:#181818;stroke-width:1.0;"/><line style="stroke:#181818;stroke-width:1.0;" x1="396.75" x2="543.5" y1="153.2656" y2="153.2656"/><line style="stroke:#181818;stroke-width:1.0;" x1="543.5" x2="543.5" y1="153.2656" y2="175.2656"/><polygon fill="#181818" points="539.5,165.2656,543.5,175.2656,547.5,165.2656,543.5,169.2656" style="stroke:#181818;stroke-width:1.0;"/><line style="stroke:#181818;stroke-width:1.0;" x1="202" x2="202" y1="587.0938" y2="605.0938"/><line style="stroke:#181818;stroke-width:1.0;" x1="202" x2="360.75" y1="605.0938" y2="605.0938"/><polygon fill="#181818" points="350.75,601.0938,360.75,605.0938,350.75,609.0938,354.75,605.0938" style="stroke:#181818;stroke-width:1.0;"/><line style="stroke:#181818;stroke-width:1.0;" x1="543.5" x2="543.5" y1="209.2344" y2="605.0938"/><line style="stroke:#181818;stroke-width:1.0;" x1="543.5" x2="384.75" y1="605.0938" y2="605.0938"/><polygon fill="#181818" points="394.75,601.0938,384.75,605.0938,394.75,609.0938,390.75,605.0938" style="stroke:#181818;stroke-width:1.0;"/><line style="stroke:#181818;stroke-width:1.0;" x1="372.75" x2="372.75" y1="121.2656" y2="141.2656"/><polygon fill="#181818" points="368.75,131.2656,372.75,141.2656,376.75,131.2656,372.75,135.2656" style="stroke:#181818;stroke-width:1.0;"/><line style="stroke:#181818;stroke-width:1.0;" x1="372.75" x2="372.75" y1="617.0938" y2="637.0938"/><polygon fill="#181818" points="368.75,627.0938,372.75,637.0938,376.75,627.0938,372.75,631.0938" style="stroke:#181818;stroke-width:1.0;"/><!--SRC=[RP71JiCm38RlUGeVjrTO3zC4IC0qG0XfucXIHusQ9SLssU3fSTTrWccd9BA_t_x_QDH4i7x5eAjUcyBnXnYsXTkGojuvKMHrRd7Ja6yX1c3wx4aKEexPnmuJH07Cy3pWQmmjlaoLPUKCcBsJp44RokFL0Ipk3ihe5T1x4W6VCEu40fVTDPtgBwAbY_u4ai072jLGyeKKvjesf10F0ypK4QfTJET1YL49ofVvjAqWHNDJWWbeB5bi0E2KH3KoP_EFsxTfmWxLDqU14HnR1x-ReKBrv7bw7kicjaeMx6dT4Q8a1BEded3PUqlv-tzhhcCuEu9z4-ttPfl2T7N_vRnoa_en-7iBnWZfEtFV2_4O5PFsdEsGFgcD6iVOvvVk5m00]--></g></svg>